<svg width="120" height="60" viewBox="0 0 179 60" fill="none" xmlns="http://www.w3.org/2000/svg">
                    <rect width="179" height="60" rx="30" fill="#39DB4A"/>
                    <path d="M70.74 30.02C70.74 28.66 71.0533 27.44 71.68 26.36C72.32 25.28 73.18 24.44 74.26 23.84C75.3533 23.2267 76.5467 22.92 77.84 22.92C79.32 22.92 80.6333 23.2867 81.78 24.02C82.94 24.74 83.78 25.7667 84.3 27.1H81.56C81.2 26.3667 80.7 25.82 80.06 25.46C79.42 25.1 78.68 24.92 77.84 24.92C76.92 24.92 76.1 25.1267 75.38 25.54C74.66 25.9533 74.0933 26.5467 73.68 27.32C73.28 28.0933 73.08 28.9933 73.08 30.02C73.08 31.0467 73.28 31.9467 73.68 32.72C74.0933 33.4933 74.66 34.0933 75.38 34.52C76.1 34.9333 76.92 35.14 77.84 35.14C78.68 35.14 79.42 34.96 80.06 34.6C80.7 34.24 81.2 33.6933 81.56 32.96H84.3C83.78 34.2933 82.94 35.32 81.78 36.04C80.6333 36.76 79.32 37.12 77.84 37.12C76.5333 37.12 75.34 36.82 74.26 36.22C73.18 35.6067 72.32 34.76 71.68 33.68C71.0533 32.6 70.74 31.38 70.74 30.02ZM91.7488 37.18C90.7088 37.18 89.7688 36.9467 88.9288 36.48C88.0888 36 87.4288 35.3333 86.9488 34.48C86.4688 33.6133 86.2288 32.6133 86.2288 31.48C86.2288 30.36 86.4754 29.3667 86.9688 28.5C87.4621 27.6333 88.1354 26.9667 88.9888 26.5C89.8421 26.0333 90.7954 25.8 91.8488 25.8C92.9021 25.8 93.8554 26.0333 94.7088 26.5C95.5621 26.9667 96.2354 27.6333 96.7288 28.5C97.2221 29.3667 97.4688 30.36 97.4688 31.48C97.4688 32.6 97.2154 33.5933 96.7088 34.46C96.2021 35.3267 95.5088 36 94.6288 36.48C93.7621 36.9467 92.8021 37.18 91.7488 37.18ZM91.7488 35.2C92.3354 35.2 92.8821 35.06 93.3888 34.78C93.9088 34.5 94.3288 34.08 94.6488 33.52C94.9688 32.96 95.1288 32.28 95.1288 31.48C95.1288 30.68 94.9754 30.0067 94.6688 29.46C94.3621 28.9 93.9554 28.48 93.4488 28.2C92.9421 27.92 92.3954 27.78 91.8088 27.78C91.2221 27.78 90.6754 27.92 90.1688 28.2C89.6754 28.48 89.2821 28.9 88.9888 29.46C88.6954 30.0067 88.5488 30.68 88.5488 31.48C88.5488 32.6667 88.8488 33.5867 89.4488 34.24C90.0621 34.88 90.8288 35.2 91.7488 35.2ZM105.283 25.8C106.149 25.8 106.923 25.98 107.603 26.34C108.296 26.7 108.836 27.2333 109.223 27.94C109.609 28.6467 109.803 29.5 109.803 30.5V37H107.543V30.84C107.543 29.8533 107.296 29.1 106.803 28.58C106.309 28.0467 105.636 27.78 104.783 27.78C103.929 27.78 103.249 28.0467 102.743 28.58C102.249 29.1 102.003 29.8533 102.003 30.84V37H99.7227V25.98H102.003V27.24C102.376 26.7867 102.849 26.4333 103.423 26.18C104.009 25.9267 104.629 25.8 105.283 25.8ZM115.371 27.84V33.94C115.371 34.3533 115.464 34.6533 115.651 34.84C115.851 35.0133 116.184 35.1 116.651 35.1H118.051V37H116.251C115.224 37 114.438 36.76 113.891 36.28C113.344 35.8 113.071 35.02 113.071 33.94V27.84H111.771V25.98H113.071V23.24H115.371V25.98H118.051V27.84H115.371ZM119.392 31.44C119.392 30.3333 119.619 29.3533 120.072 28.5C120.539 27.6467 121.166 26.9867 121.952 26.52C122.752 26.04 123.632 25.8 124.592 25.8C125.459 25.8 126.212 25.9733 126.852 26.32C127.506 26.6533 128.026 27.0733 128.412 27.58V25.98H130.712V37H128.412V35.36C128.026 35.88 127.499 36.3133 126.832 36.66C126.166 37.0067 125.406 37.18 124.552 37.18C123.606 37.18 122.739 36.94 121.952 36.46C121.166 35.9667 120.539 35.2867 120.072 34.42C119.619 33.54 119.392 32.5467 119.392 31.44ZM128.412 31.48C128.412 30.72 128.252 30.06 127.932 29.5C127.626 28.94 127.219 28.5133 126.712 28.22C126.206 27.9267 125.659 27.78 125.072 27.78C124.486 27.78 123.939 27.9267 123.432 28.22C122.926 28.5 122.512 28.92 122.192 29.48C121.886 30.0267 121.732 30.68 121.732 31.44C121.732 32.2 121.886 32.8667 122.192 33.44C122.512 34.0133 122.926 34.4533 123.432 34.76C123.952 35.0533 124.499 35.2 125.072 35.2C125.659 35.2 126.206 35.0533 126.712 34.76C127.219 34.4667 127.626 34.04 127.932 33.48C128.252 32.9067 128.412 32.24 128.412 31.48ZM132.947 31.48C132.947 30.3467 133.174 29.3533 133.627 28.5C134.094 27.6333 134.734 26.9667 135.547 26.5C136.36 26.0333 137.294 25.8 138.347 25.8C139.68 25.8 140.78 26.12 141.647 26.76C142.527 27.3867 143.12 28.2867 143.427 29.46H140.967C140.767 28.9133 140.447 28.4867 140.007 28.18C139.567 27.8733 139.014 27.72 138.347 27.72C137.414 27.72 136.667 28.0533 136.107 28.72C135.56 29.3733 135.287 30.2933 135.287 31.48C135.287 32.6667 135.56 33.5933 136.107 34.26C136.667 34.9267 137.414 35.26 138.347 35.26C139.667 35.26 140.54 34.68 140.967 33.52H143.427C143.107 34.64 142.507 35.5333 141.627 36.2C140.747 36.8533 139.654 37.18 138.347 37.18C137.294 37.18 136.36 36.9467 135.547 36.48C134.734 36 134.094 35.3333 133.627 34.48C133.174 33.6133 132.947 32.6133 132.947 31.48ZM148.359 27.84V33.94C148.359 34.3533 148.453 34.6533 148.639 34.84C148.839 35.0133 149.173 35.1 149.639 35.1H151.039V37H149.239C148.213 37 147.426 36.76 146.879 36.28C146.333 35.8 146.059 35.02 146.059 33.94V27.84H144.759V25.98H146.059V23.24H148.359V25.98H151.039V27.84H148.359Z" fill="white"/>
                    <g clip-path="url(#clip0_0_1)">
                    <path d="M44.9999 19.0001C44.9999 18.7349 45.1052 18.4806 45.2928 18.293C45.4803 18.1055 45.7347 18.0001 45.9999 18.0001C48.6511 18.003 51.193 19.0575 53.0677 20.9323C54.9425 22.807 55.997 25.3489 55.9999 28.0001C55.9999 28.2654 55.8945 28.5197 55.707 28.7072C55.5194 28.8948 55.2651 29.0001 54.9999 29.0001C54.7346 29.0001 54.4803 28.8948 54.2928 28.7072C54.1052 28.5197 53.9999 28.2654 53.9999 28.0001C53.9975 25.8791 53.1539 23.8457 51.6541 22.3459C50.1543 20.8461 48.1209 20.0025 45.9999 20.0001C45.7347 20.0001 45.4803 19.8948 45.2928 19.7072C45.1052 19.5197 44.9999 19.2653 44.9999 19.0001ZM45.9999 24.0001C47.0607 24.0001 48.0782 24.4216 48.8283 25.1717C49.5784 25.9219 49.9999 26.9393 49.9999 28.0001C49.9999 28.2654 50.1052 28.5197 50.2928 28.7072C50.4803 28.8948 50.7347 29.0001 50.9999 29.0001C51.2651 29.0001 51.5194 28.8948 51.707 28.7072C51.8945 28.5197 51.9999 28.2654 51.9999 28.0001C51.9983 26.4093 51.3656 24.8841 50.2408 23.7592C49.1159 22.6344 47.5907 22.0017 45.9999 22.0001C45.7347 22.0001 45.4803 22.1055 45.2928 22.293C45.1052 22.4806 44.9999 22.7349 44.9999 23.0001C44.9999 23.2653 45.1052 23.5197 45.2928 23.7072C45.4803 23.8948 45.7347 24.0001 45.9999 24.0001ZM55.0929 34.7391C55.6724 35.3202 55.9978 36.1074 55.9978 36.9281C55.9978 37.7488 55.6724 38.536 55.0929 39.1171L54.1829 40.1661C45.9929 48.0071 26.0629 28.0821 33.7829 19.8661L34.9329 18.8661C35.5147 18.3028 36.2948 17.9912 37.1046 17.9987C37.9144 18.0062 38.6886 18.3322 39.2599 18.9061C39.2909 18.9371 41.1439 21.3441 41.1439 21.3441C41.6937 21.9218 41.9998 22.6891 41.9985 23.4865C41.9972 24.284 41.6886 25.0503 41.1369 25.6261L39.9789 27.0821C40.6197 28.6392 41.5619 30.0544 42.7514 31.2462C43.9408 32.4381 45.3541 33.3831 46.9099 34.0271L48.3749 32.8621C48.9508 32.3108 49.7169 32.0026 50.5142 32.0015C51.3114 32.0004 52.0784 32.3065 52.6559 32.8561C52.6559 32.8561 55.0619 34.7081 55.0929 34.7391ZM53.7169 36.1931C53.7169 36.1931 51.3239 34.3521 51.2929 34.3211C51.0869 34.1169 50.8085 34.0023 50.5184 34.0023C50.2283 34.0023 49.9499 34.1169 49.7439 34.3211C49.7169 34.3491 47.6999 35.9561 47.6999 35.9561C47.564 36.0643 47.4022 36.1352 47.2305 36.1619C47.0589 36.1885 46.8832 36.17 46.7209 36.1081C44.7053 35.3577 42.8746 34.1829 41.3527 32.6632C39.8308 31.1436 38.6533 29.3146 37.8999 27.3001C37.8331 27.1356 37.8113 26.9562 37.8368 26.7805C37.8623 26.6047 37.9341 26.4389 38.0449 26.3001C38.0449 26.3001 39.6519 24.2821 39.6789 24.2561C39.8832 24.0501 39.9978 23.7717 39.9978 23.4816C39.9978 23.1915 39.8832 22.9131 39.6789 22.7071C39.6479 22.6771 37.8069 20.2821 37.8069 20.2821C37.5978 20.0946 37.3249 19.9942 37.0441 20.0015C36.7634 20.0087 36.496 20.1231 36.2969 20.3211L35.1469 21.3211C29.5049 28.1051 46.7759 44.4181 52.7209 38.8001L53.6319 37.7501C53.8453 37.5524 53.9736 37.2794 53.9894 36.9888C54.0053 36.6983 53.9076 36.4129 53.7169 36.1931Z" fill="white"/>
                    </g>
                    <defs>
                    <clipPath id="clip0_0_1">
                    <rect width="24" height="24" fill="white" transform="translate(32 18)"/>
                    </clipPath>
                    </defs>
                    </svg>