<svg width="200" height="120" viewBox="30 0 305 120" fill="none" xmlns="http://www.w3.org/2000/svg">
<g filter="url(#filter0_d_0_1)">
<rect x="40" y="16" width="229" height="80" rx="40" fill="#39DB4A"/>
</g>
<path d="M99.7614 56.5455C99.7614 58.5829 99.3797 60.3279 98.6165 61.7805C97.8594 63.227 96.8253 64.335 95.5142 65.1044C94.2093 65.8738 92.7289 66.2585 91.0732 66.2585C89.4174 66.2585 87.9339 65.8738 86.6229 65.1044C85.3179 64.3288 84.2839 63.2178 83.5206 61.7713C82.7635 60.3187 82.3849 58.5767 82.3849 56.5455C82.3849 54.508 82.7635 52.7661 83.5206 51.3196C84.2839 49.867 85.3179 48.7559 86.6229 47.9865C87.9339 47.2171 89.4174 46.8324 91.0732 46.8324C92.7289 46.8324 94.2093 47.2171 95.5142 47.9865C96.8253 48.7559 97.8594 49.867 98.6165 51.3196C99.3797 52.7661 99.7614 54.508 99.7614 56.5455ZM96.3175 56.5455C96.3175 55.1113 96.0928 53.9018 95.6435 52.9169C95.2003 51.9259 94.5848 51.178 93.7969 50.6733C93.009 50.1624 92.1011 49.907 91.0732 49.907C90.0452 49.907 89.1373 50.1624 88.3494 50.6733C87.5616 51.178 86.9429 51.9259 86.4936 52.9169C86.0504 53.9018 85.8288 55.1113 85.8288 56.5455C85.8288 57.9796 86.0504 59.1922 86.4936 60.1832C86.9429 61.1681 87.5616 61.916 88.3494 62.4268C89.1373 62.9316 90.0452 63.1839 91.0732 63.1839C92.1011 63.1839 93.009 62.9316 93.7969 62.4268C94.5848 61.916 95.2003 61.1681 95.6435 60.1832C96.0928 59.1922 96.3175 57.9796 96.3175 56.5455ZM102.852 66V51.8182H106.093V54.1818H106.241C106.499 53.3632 106.942 52.7322 107.57 52.2891C108.204 51.8397 108.927 51.6151 109.74 51.6151C109.925 51.6151 110.131 51.6243 110.358 51.6428C110.592 51.6551 110.786 51.6766 110.94 51.7074V54.782C110.799 54.7327 110.574 54.6896 110.266 54.6527C109.965 54.6096 109.672 54.5881 109.389 54.5881C108.78 54.5881 108.232 54.7204 107.746 54.9851C107.265 55.2436 106.887 55.6037 106.61 56.0653C106.333 56.527 106.194 57.0594 106.194 57.6626V66H102.852ZM117.839 66.2493C116.725 66.2493 115.728 65.9631 114.848 65.3906C113.968 64.8182 113.272 63.9872 112.761 62.8977C112.25 61.8082 111.995 60.4848 111.995 58.9276C111.995 57.3518 112.254 56.0223 112.771 54.9389C113.294 53.8494 113.999 53.0277 114.885 52.4737C115.771 51.9136 116.759 51.6335 117.849 51.6335C118.68 51.6335 119.363 51.7751 119.898 52.0582C120.434 52.3352 120.859 52.6707 121.173 53.0646C121.487 53.4524 121.73 53.8187 121.902 54.1634H122.04V47.0909H125.392V66H122.105V63.7656H121.902C121.73 64.1103 121.48 64.4766 121.154 64.8643C120.828 65.246 120.397 65.5722 119.862 65.843C119.326 66.1139 118.652 66.2493 117.839 66.2493ZM118.772 63.5071C119.48 63.5071 120.083 63.3163 120.582 62.9347C121.08 62.5469 121.459 62.0083 121.717 61.3189C121.976 60.6295 122.105 59.8262 122.105 58.9091C122.105 57.992 121.976 57.1948 121.717 56.5178C121.465 55.8407 121.089 55.3144 120.591 54.9389C120.098 54.5634 119.492 54.3757 118.772 54.3757C118.027 54.3757 117.406 54.5696 116.907 54.9574C116.408 55.3452 116.033 55.8807 115.781 56.5639C115.528 57.2472 115.402 58.0289 115.402 58.9091C115.402 59.7955 115.528 60.5864 115.781 61.282C116.039 61.9714 116.418 62.5161 116.916 62.9162C117.421 63.3101 118.04 63.5071 118.772 63.5071ZM135.232 66.277C133.81 66.277 132.582 65.9815 131.548 65.3906C130.52 64.7936 129.729 63.9503 129.175 62.8608C128.621 61.7652 128.344 60.4756 128.344 58.9922C128.344 57.5334 128.621 56.2531 129.175 55.1513C129.735 54.0433 130.517 53.1816 131.52 52.5661C132.524 51.9444 133.702 51.6335 135.057 51.6335C135.931 51.6335 136.756 51.7751 137.531 52.0582C138.313 52.3352 139.002 52.7661 139.599 53.3509C140.202 53.9356 140.676 54.6804 141.021 55.5852C141.366 56.4839 141.538 57.5549 141.538 58.7983V59.8232H129.914V57.5703H138.334C138.328 56.9302 138.19 56.3608 137.919 55.8622C137.648 55.3575 137.269 54.9605 136.783 54.6712C136.303 54.3819 135.743 54.2372 135.103 54.2372C134.42 54.2372 133.819 54.4034 133.302 54.7358C132.785 55.062 132.382 55.4929 132.093 56.0284C131.81 56.5578 131.665 57.1394 131.659 57.7734V59.7401C131.659 60.5649 131.81 61.2727 132.111 61.8636C132.413 62.4484 132.835 62.8977 133.376 63.2116C133.918 63.5194 134.552 63.6733 135.278 63.6733C135.765 63.6733 136.205 63.6056 136.599 63.4702C136.992 63.3286 137.334 63.1224 137.623 62.8516C137.913 62.5807 138.131 62.2453 138.279 61.8452L141.4 62.196C141.203 63.0208 140.827 63.741 140.273 64.3565C139.725 64.9659 139.024 65.4399 138.168 65.7784C137.313 66.1108 136.334 66.277 135.232 66.277ZM144.366 66V51.8182H147.607V54.1818H147.754C148.013 53.3632 148.456 52.7322 149.084 52.2891C149.718 51.8397 150.441 51.6151 151.254 51.6151C151.438 51.6151 151.644 51.6243 151.872 51.6428C152.106 51.6551 152.3 51.6766 152.454 51.7074V54.782C152.312 54.7327 152.088 54.6896 151.78 54.6527C151.478 54.6096 151.186 54.5881 150.903 54.5881C150.293 54.5881 149.746 54.7204 149.259 54.9851C148.779 55.2436 148.401 55.6037 148.124 56.0653C147.847 56.527 147.708 57.0594 147.708 57.6626V66H144.366ZM176.81 47.0909V66H173.763L164.854 53.12H164.697V66H161.271V47.0909H164.337L173.237 59.9801H173.403V47.0909H176.81ZM186.581 66.277C185.196 66.277 183.996 65.9723 182.98 65.3629C181.965 64.7536 181.177 63.901 180.617 62.8054C180.063 61.7098 179.786 60.4295 179.786 58.9645C179.786 57.4995 180.063 56.2161 180.617 55.1143C181.177 54.0125 181.965 53.157 182.98 52.5476C183.996 51.9382 185.196 51.6335 186.581 51.6335C187.966 51.6335 189.166 51.9382 190.182 52.5476C191.198 53.157 191.982 54.0125 192.536 55.1143C193.097 56.2161 193.377 57.4995 193.377 58.9645C193.377 60.4295 193.097 61.7098 192.536 62.8054C191.982 63.901 191.198 64.7536 190.182 65.3629C189.166 65.9723 187.966 66.277 186.581 66.277ZM186.6 63.5994C187.351 63.5994 187.978 63.3932 188.483 62.9808C188.988 62.5623 189.363 62.0021 189.61 61.3004C189.862 60.5987 189.988 59.817 189.988 58.9553C189.988 58.0874 189.862 57.3026 189.61 56.6009C189.363 55.893 188.988 55.3298 188.483 54.9112C187.978 54.4927 187.351 54.2834 186.6 54.2834C185.83 54.2834 185.19 54.4927 184.679 54.9112C184.174 55.3298 183.796 55.893 183.544 56.6009C183.297 57.3026 183.174 58.0874 183.174 58.9553C183.174 59.817 183.297 60.5987 183.544 61.3004C183.796 62.0021 184.174 62.5623 184.679 62.9808C185.19 63.3932 185.83 63.5994 186.6 63.5994ZM198.734 66L194.727 51.8182H198.134L200.627 61.7898H200.756L203.304 51.8182H206.674L209.223 61.7344H209.361L211.817 51.8182H215.233L211.217 66H207.736L205.077 56.4162H204.883L202.224 66H198.734Z" fill="white"/>
<defs>
<filter id="filter0_d_0_1" x="0" y="0" width="305" height="156" filterUnits="userSpaceOnUse" color-interpolation-filters="sRGB">
<feFlood flood-opacity="0" result="BackgroundImageFix"/>
<feColorMatrix in="SourceAlpha" type="matrix" values="0 0 0 0 0 0 0 0 0 0 0 0 0 0 0 0 0 0 127 0" result="hardAlpha"/>
<feOffset dx="-2" dy="22"/>
<feGaussianBlur stdDeviation="19"/>
<feComposite in2="hardAlpha" operator="out"/>
<feColorMatrix type="matrix" values="0 0 0 0 0.558333 0 0 0 0 1 0 0 0 0 0.6025 0 0 0 0.5 0"/>
<feBlend mode="normal" in2="BackgroundImageFix" result="effect1_dropShadow_0_1"/>
<feBlend mode="normal" in="SourceGraphic" in2="effect1_dropShadow_0_1" result="shape"/>
</filter>
</defs>
</svg>
